<?xml version="1.0" encoding="UTF-8"?>
<svg id="Capa_1" data-name="Capa 1" xmlns="http://www.w3.org/2000/svg" xmlns:xlink="http://www.w3.org/1999/xlink" viewBox="0 0 595.28 244.29">
  <defs>
    <style>
      .cls-1 {
        fill: url(#Degradado_sin_nombre_52);
      }

      .cls-1, .cls-2, .cls-3, .cls-4, .cls-5 {
        stroke-width: 0px;
      }

      .cls-2 {
        fill: url(#Degradado_sin_nombre_30);
      }

      .cls-3 {
        fill: url(#Degradado_sin_nombre_57);
      }

      .cls-4 {
        fill: #20274b;
      }

      .cls-5 {
        fill: #242954;
      }
    </style>
    <linearGradient id="Degradado_sin_nombre_30" data-name="Degradado sin nombre 30" x1="174.91" y1="131.7" x2="335.57" y2="131.7" gradientUnits="userSpaceOnUse">
      <stop offset="0" stop-color="#7bc0db"/>
      <stop offset="1" stop-color="#4589b8"/>
    </linearGradient>
    <linearGradient id="Degradado_sin_nombre_57" data-name="Degradado sin nombre 57" x1="70.95" y1="65.81" x2="33.53" y2="157.64" gradientUnits="userSpaceOnUse">
      <stop offset="0" stop-color="#80c4d8"/>
      <stop offset="1" stop-color="#4493c2"/>
    </linearGradient>
    <linearGradient id="Degradado_sin_nombre_52" data-name="Degradado sin nombre 52" x1="122.73" y1="158.15" x2="85.61" y2="64.09" gradientUnits="userSpaceOnUse">
      <stop offset="0" stop-color="#3a935c"/>
      <stop offset=".38" stop-color="#61a563"/>
      <stop offset=".78" stop-color="#85b76a"/>
      <stop offset="1" stop-color="#93be6d"/>
    </linearGradient>
  </defs>
  <g>
    <path class="cls-5" d="M385.77,131.88c7.35,1.71,10.21,7.11,10.4,12.9.34,10.4-7.39,15.68-22.01,15.07l-25.48-.15-.57-53.93h26.83c12.25,0,18.97,4.86,18.66,14.52-.16,5.25-1.42,8.96-6.83,11.2l-1.01.38ZM359.65,115.62v12.44l15.6-.34c4.08,0,6.69-2.46,6.69-6.1s-2.38-6.11-6.46-6.11l-15.83.11ZM376.5,150.66c4.75,0,7.35-3.3,7.35-7.24s-3.73-6.56-7.82-6.67l-16.34.19.08,13.94,16.73-.23Z"/>
    <path class="cls-5" d="M404.73,159.78l.04-41.44,11.16.02c0,2.25-.04,3.47-.08,6.22,0,0,.08.22.38-.45,1.06-2.41,4.63-4.67,9.01-5.58,1.8-.37,2.53-.34,4.64-.11l.04,9.65c-1.58.04-3.58,0-4.71.19-4.85.81-8.37,4.09-8.37,10.52v20.98s-12.09,0-12.09,0Z"/>
    <path class="cls-5" d="M492.11,159.94l-16.09-41.38,11.5.45s9.04,22.76,10.93,28.03h.15c2.18-4.36,11.07-28.78,11.07-28.78l10.74.3-16.01,41.38h-12.3Z"/>
    <path class="cls-5" d="M471.77,160.09l.04-25.8c0-5.22-1.71-8.27-4.11-10.9-2.84-3.11-6.91-5.33-14.04-5.66-5.13-.24-13.85,1.02-18.26,5.43l3.73,8.3c2.45-1.43,3.8-2.34,6.18-3.09,1.58-.5,4.15-.75,5.58-.75,3.33,0,5.52.82,7.01,2.26,1.22,1.19,2.15,2.41,2.15,4.65v1.13c-2.9-.21-6.9.11-10.97.11-9.34,0-15.6,5.43-15.48,11.69.08,4.11,1.16,7.46,3.72,9.96.87.85,4.52,2.91,6.78,3.06,1.21.08,8.92.03,9.72-.23,2.34-.75,5.13-2.8,6.93-4.97l-.15,4.75,11.16.08ZM460.35,146.33c-.08.85-.32,1.63-.73,2.34-.44.89-1.33,2.12-2.77,2.76-.08.04-.62.46-1.32.49-.04,0-.08,0-.11,0-2.07.77-4.39.89-6.5.35-2.46-.63-4.51-1.82-4.3-4.87.2-2.87,2-4.27,4.63-4.62,1.06-.14,2.99-.19,4.23-.19.65,0,2.08-.04,2.59-.03,1.62.03,3.72.06,4.37.11,0,0-.01,2.96-.08,3.66Z"/>
    <path class="cls-2" d="M220.7,124.19c0-5.2-1.95-9.49-5.76-12.73-3.82-3.24-9.06-4.78-15.15-4.78l-24.87-.45.08,53.05,11.96.03.06-14.87h12.78l9.38,15.15,12.66.23-11.98-18.32c8.12-2.49,10.85-9.26,10.85-17.31ZM200.35,134.61l-13-.11-.11-17.86h12.89c5.76,0,9.5,3.59,9.5,8.71,0,4.82-3.51,9.27-9.27,9.27ZM249.42,117.88c-5.89,0-11.18,1.95-15.38,5.65-4.27,3.78-6.67,8.71-6.67,15.38s2.9,12.55,7.01,16.17c4.11,3.7,9.94,5.31,16.39,5.31,7.1,0,12.28-2.87,16.39-6.9l-5.97-6.39c-3.15,2.55-7.1,3.69-11.22,3.73-6.39.06-9.87-3.62-10.51-8.31l30.53-.11v-5.31c0-6.25-2.36-10.37-5.99-13.91-3.63-3.45-8.78-5.31-14.58-5.31ZM239.24,135.97c.24-2.55,1.41-4.71,2.94-6.11,1.53-1.32,4.44-3.05,6.78-3.05s5.53,1.28,7.07,2.6c1.53,1.4,3.08,3.78,3,6.33l-19.79.23ZM335.57,102.88v56.68h-11.46v-56.83l11.46.15ZM294.91,117.51c-5.13-.24-13.85,1.02-18.26,5.43l3.73,8.3c2.45-1.43,3.8-2.34,6.18-3.09,1.58-.5,4.15-.75,5.58-.75,3.33,0,5.52.82,7.01,2.26,1.22,1.19,2.15,2.41,2.15,4.65v1.13c-2.9-.21-6.9.11-10.97.11-9.34,0-15.6,5.43-15.48,11.69.08,4.11,1.38,7.25,3.72,9.96,4.25,4.91,15.95,3.55,17.75,2.33,1-.67,2.1-1.18,3.04-1.92.52-.41,2.62-1.86,2.65-2.55,0,0-.15,4.75-.15,4.75l11.16.08.04-25.8c0-5.22-1.71-8.27-4.11-10.9-2.84-3.11-6.91-5.33-14.04-5.66ZM301.6,146.13c-.08.85-.32,1.63-.73,2.34-2.04,3.58-6.93,4.57-10.7,3.61-2.46-.63-4.51-1.82-4.3-4.87.2-2.87,2-4.27,4.63-4.62,1.06-.14,2.99-.19,4.23-.19.65,0,2.08-.04,2.59-.03,1.62.03,3.72.06,4.37.11,0,0-.01,2.96-.08,3.66Z"/>
    <path class="cls-5" d="M564.01,142.34l-30.53.11c.65,4.69,4.13,8.37,10.51,8.31,4.11-.04,8.22-1.01,11.36-3.56l6.63,6.03c-4.11,4.03-10.11,7.09-17.2,7.09-6.45,0-12.28-1.61-16.39-5.31-4.11-3.62-7.01-9.34-7.01-16.17s2.4-11.59,6.67-15.38c4.19-3.7,9.81-5.2,15.7-5.2s10.24,1.82,13.87,5.28c3.63,3.54,6.39,7.24,6.39,13.49v5.31ZM542.98,126.73c-2.34,0-5.25,1.74-6.78,3.05-1.53,1.4-2.7,3.56-2.94,6.11l19.79-.23c.08-2.55-1.46-4.93-3-6.33-1.53-1.32-4.73-2.6-7.07-2.6Z"/>
  </g>
  <g>
    <polygon class="cls-3" points="72.28 131.42 31.45 159.85 31.45 93.86 72.28 60.69 72.28 131.42"/>
    <polygon class="cls-1" points="84.86 132.69 125.69 161.13 125.69 95.14 84.86 61.96 84.86 132.69"/>
    <polygon class="cls-4" points="126.42 207.8 31.27 207.8 31.27 174.98 78.85 142.17 126.42 174.98 126.42 207.8"/>
  </g>
</svg>